<?xml version="1.0" encoding="utf-8"?>
<!-- Generator: Adobe Illustrator 16.0.3, SVG Export Plug-In . SVG Version: 6.00 Build 0)  -->
<!DOCTYPE svg PUBLIC "-//W3C//DTD SVG 1.1//EN" "http://www.w3.org/Graphics/SVG/1.1/DTD/svg11.dtd">
<svg version="1.1" xmlns="http://www.w3.org/2000/svg" xmlns:xlink="http://www.w3.org/1999/xlink" x="0px" y="0px"
	 width="468.261px" height="176.501px" viewBox="0 0 468.261 176.501" enable-background="new 0 0 468.261 176.501"
	 xml:space="preserve">
<g id="Layer_2">
</g>
<g id="Layer_1">
	<g>
		<path d="M50.443,47.619l-4.999,17.907h-4.816L59.354,1.896h5.908l18.361,63.629h-4.909l-5.091-17.907H50.443z M72.988,44.346
			L62.171,6.351L51.264,44.346H72.988z"/>
		<path d="M107.797,61.072l16.908-59.176h4.545l-18.726,63.629h-5.908L86.255,1.896h4.727L107.797,61.072z"/>
		<path d="M168.059,61.708c1.182,0,2.274-0.091,3.273-0.545v4.363h-24.998c-5.544,0-8.182-3.454-8.182-8.363V10.259
			c0-4.909,2.638-8.363,8.182-8.363h24.998V6.26c-1-0.455-2.092-0.545-3.273-0.545h-20.814c-3.002,0-4.82,1.818-4.82,5.181v45.63
			c0,3.364,1.817,5.182,4.82,5.182H168.059z"/>
		<path d="M29.907,170.778c1.182,0,2.274-0.091,3.273-0.546v4.364H8.183c-5.544,0-8.183-3.454-8.183-8.363v-46.903
			c0-4.909,2.638-8.363,8.183-8.363H33.18v4.363c-1-0.454-2.092-0.545-3.273-0.545H9.093c-3.002,0-4.819,1.818-4.819,5.181v45.631
			c0,3.364,1.817,5.182,4.819,5.182H29.907z M26.09,99.421h3.181l-8.907,8.727H17.09l-8.907-8.727h3.273l7.362,6.272L26.09,99.421z"
			/>
		<path d="M59.083,170.141l16.908-59.175h4.545L61.81,174.595h-5.908L37.54,110.966h4.727L59.083,170.141z"/>
		<path d="M124.341,166.232c0,4.909-2.724,8.363-8.179,8.363H97.619c-5.544,0-8.182-3.454-8.182-8.363v-55.266h4.273v54.63
			c0,3.364,1.817,5.182,4.82,5.182h16.723c3.002,0,4.727-1.818,4.727-5.182v-54.63h4.363V166.232z"/>
		<path d="M155.334,174.595h-4.363v-59.812h-13.727c-0.817,0-1.725,0.091-2.725,0.455v-4.272h37.176v4.272
			c-1-0.363-1.91-0.455-2.728-0.455h-13.634V174.595z"/>
	</g>
	<g>
		<polyline fill="none" stroke="#000000" stroke-width="4.0103" stroke-miterlimit="10" points="406.941,163.203 418.411,174.496 
			443.925,174.496 443.925,146.687 420.6,146.687 392.352,81.462 		"/>
		<polyline fill="none" stroke="#000000" stroke-width="4.0103" stroke-miterlimit="10" points="450.516,109.039 435.999,75.133 
			465.944,33.818 459.295,19.629 		"/>
		<polyline fill="none" stroke="#000000" stroke-width="4.0103" stroke-miterlimit="10" points="404.291,109.039 450.516,109.039 
			465.944,75.133 435.999,33.825 444.129,19.629 		"/>
		<polyline fill="none" stroke="#000000" stroke-width="4.0103" stroke-miterlimit="10" points="373.964,98.792 424.972,49.987 
			424.972,40.386 		"/>
		<polyline fill="none" stroke="#000000" stroke-width="4.0103" stroke-miterlimit="10" points="364.99,91.653 415.993,42.849 
			415.993,33.247 		"/>
		
			<line fill="none" stroke="#000000" stroke-width="4.0103" stroke-miterlimit="10" x1="351.377" y1="77.626" x2="391.048" y2="39.109"/>
		<polyline fill="none" stroke="#000000" stroke-width="4.0103" stroke-miterlimit="10" points="407.95,26.66 407.95,36.26 
			377.918,64.875 341.75,99.331 327.895,98.335 314.271,84.98 		"/>
		<polyline fill="none" stroke="#000000" stroke-width="4.0103" stroke-miterlimit="10" points="370.655,58.929 329.997,58.929 
			318.735,47.902 		"/>
		<polyline fill="none" stroke="#000000" stroke-width="4.0103" stroke-miterlimit="10" points="368.608,38.088 389.845,30.019 
			389.845,19.629 369.094,19.629 		"/>
		<polyline fill="none" stroke="#000000" stroke-width="4.0103" stroke-miterlimit="10" points="381.646,25.219 362.236,29.891 
			354.217,21.163 		"/>
		<polyline fill="none" stroke="#000000" stroke-width="4.0103" stroke-miterlimit="10" points="395.138,4.79 388.837,10.77 
			380.667,4.79 372.496,10.77 366.192,4.79 		"/>
		<polyline fill="none" stroke="#000000" stroke-width="4.0103" stroke-miterlimit="10" points="408.437,118.614 356.315,118.614 
			356.416,174.496 333.473,174.496 278.738,77.284 297.693,77.284 297.693,73.361 302.438,73.361 302.438,33.825 293.921,33.825 		
			"/>
		<polyline fill="none" stroke="#000000" stroke-width="4.0103" stroke-miterlimit="10" points="237.082,60.967 216.24,69.587 
			216.24,33.136 237.082,40.119 237.082,33.825 250.483,33.8 		"/>
		<path fill="none" stroke="#000000" stroke-width="4.0103" stroke-miterlimit="10" d="M266.384,17.898
			c0,8.784-7.121,15.902-15.9,15.902c-8.781,0-15.901-7.118-15.901-15.902c0-8.78,7.12-15.893,15.901-15.893
			C259.263,2.005,266.384,9.118,266.384,17.898z"/>
		<path fill="none" stroke="#000000" stroke-width="4.0103" stroke-miterlimit="10" d="M310.169,17.898
			c0,8.784-7.12,15.902-15.901,15.902c-8.782,0-15.899-7.118-15.899-15.902c0-8.78,7.117-15.893,15.899-15.893
			C303.049,2.005,310.169,9.118,310.169,17.898z"/>
	</g>
	
		<line fill="none" stroke="#000000" stroke-width="4.0103" stroke-miterlimit="10" x1="171.156" y1="84.162" x2="0.045" y2="84.162"/>
</g>
</svg>
